<?xml version="1.0" standalone="no"?>
<!DOCTYPE svg PUBLIC "-//W3C//DTD SVG 20010904//EN"
 "http://www.w3.org/TR/2001/REC-SVG-20010904/DTD/svg10.dtd">
<svg version="1.0" xmlns="http://www.w3.org/2000/svg"
 width="330.000000pt" height="90.000000pt" viewBox="0 0 330.000000 90.000000"
 preserveAspectRatio="xMidYMid meet">

<g transform="translate(0.000000,90.000000) scale(0.100000,-0.100000)"
fill="#000000" stroke="none">
<path d="M345 747 c-96 -32 -137 -63 -189 -142 -79 -123 -44 -308 76 -395 71
-52 106 -63 198 -64 74 -1 92 3 142 27 235 115 236 438 2 553 -65 32 -167 41
-229 21z m205 -49 c58 -24 105 -70 136 -131 53 -102 38 -207 -41 -295 -164
-182 -471 -90 -492 148 -20 218 192 366 397 278z"/>
<path d="M405 659 c-4 -6 -5 -12 -2 -15 2 -3 7 2 10 11 7 17 1 20 -8 4z"/>
<path d="M392 605 c0 -16 2 -22 5 -12 2 9 2 23 0 30 -3 6 -5 -1 -5 -18z"/>
<path d="M449 543 c-8 -14 -27 -35 -44 -45 -33 -20 -29 -24 7 -7 21 9 63 67
55 75 -2 2 -10 -8 -18 -23z"/>
<path d="M515 534 l-30 -26 35 23 c45 29 45 29 34 29 -5 0 -22 -12 -39 -26z"/>
<path d="M630 550 c12 -8 10 -14 -15 -42 l-30 -33 34 31 c31 30 35 54 8 54 -7
0 -6 -4 3 -10z"/>
<path d="M230 516 c0 -2 8 -10 18 -17 15 -13 16 -12 3 4 -13 16 -21 21 -21 13z"/>
<path d="M471 482 c-17 -31 -13 -40 5 -14 9 13 14 26 11 29 -3 2 -10 -4 -16
-15z"/>
<path d="M558 473 c7 -3 16 -2 19 1 4 3 -2 6 -13 5 -11 0 -14 -3 -6 -6z"/>
<path d="M206 442 c-3 -5 4 -21 15 -38 21 -32 27 -26 7 6 -11 17 -10 22 2 30
13 8 13 10 -2 10 -9 0 -19 -4 -22 -8z"/>
<path d="M630 446 c0 -2 7 -6 15 -10 8 -3 15 -1 15 4 0 6 -7 10 -15 10 -8 0
-15 -2 -15 -4z"/>
<path d="M555 424 c-39 -20 -73 -52 -81 -76 -8 -27 -32 -22 -37 10 -4 25 -4
25 -6 -5 -1 -23 4 -33 13 -33 8 0 17 -6 19 -12 4 -10 6 -10 6 0 1 6 11 13 24
13 16 1 18 2 5 6 -10 2 -18 8 -18 13 0 18 46 60 85 80 22 10 36 19 30 20 -5 0
-23 -7 -40 -16z"/>
<path d="M640 412 c0 -7 -19 -25 -42 -42 -22 -16 -37 -30 -31 -30 16 0 88 68
81 76 -5 4 -8 2 -8 -4z"/>
<path d="M250 376 c0 -2 8 -10 18 -17 15 -13 16 -12 3 4 -13 16 -21 21 -21 13z"/>
<path d="M370 329 c-23 -6 -23 -7 -3 -8 12 -1 23 -6 25 -13 3 -8 7 -6 11 5 8
21 -2 26 -33 16z"/>
<path d="M365 235 c51 -31 82 -31 136 0 51 29 42 32 -24 9 -43 -15 -51 -15
-94 0 -63 21 -65 20 -18 -9z"/>
</g>
</svg>
